<svg xmlns="http://www.w3.org/2000/svg" version="1.1" xmlns:xlink="http://www.w3.org/1999/xlink" xmlns:svgjs="http://svgjs.dev/svgjs" width="1500" height="242" viewBox="0 0 1500 242"><g transform="matrix(1,0,0,1,-0.9090909090909918,-1.6146346709770256)"><svg viewBox="0 0 396 64" data-background-color="#ffffff" preserveAspectRatio="xMidYMid meet" height="242" width="1500" xmlns="http://www.w3.org/2000/svg" xmlns:xlink="http://www.w3.org/1999/xlink"><g id="tight-bounds" transform="matrix(1,0,0,1,0.2400000000000091,0.4270108220765678)"><svg viewBox="0 0 395.52 63.145978355846886" height="63.145978355846886" width="395.52"><g><svg viewBox="0 0 500.9524382781155 79.97858976744186" height="63.145978355846886" width="395.52"><g transform="matrix(1,0,0,1,105.43243827811551,11.05348093023256)"><svg viewBox="0 0 395.52 57.87162790697674" height="57.87162790697674" width="395.52"><g id="textblocktransform"><svg viewBox="0 0 395.52 57.87162790697674" height="57.87162790697674" width="395.52" id="textblock"><g><svg viewBox="0 0 395.52 57.87162790697674" height="57.87162790697674" width="395.52"><g transform="matrix(1,0,0,1,0,0)"><svg width="395.52" viewBox="2 -37.5 267.98 37.75" height="57.87162790697674" data-palette-color="#1678e9"><g class="wordmark-text-0" data-fill-palette-color="primary" id="text-0"><path d="M17.65-34.3L17.65-34.3Q12-34.3 8.7-29.6 5.4-24.9 5.4-16L5.4-16Q5.4-5.2 10.35-2.05L10.35-2.05Q11.85-1.1 13.13-0.83 14.4-0.55 15.95-0.55L15.95-0.55Q20.9-0.55 26.3-1.75L26.3-1.75 26.45-1.05Q25.6-0.75 21.93-0.28 18.25 0.2 15.95 0.2 13.65 0.2 11.95-0.13 10.25-0.45 8.35-1.5 6.45-2.55 5.13-4.28 3.8-6 2.9-9 2-12 2-16L2-16Q2-24.85 6.05-29.8L6.05-29.8Q10.3-35 17.65-35L17.65-35Q19.9-35 22.53-34.58 25.15-34.15 26.25-33.75L26.25-33.75 26.85-26.55 25.9-26.2 25.25-31.55Q21.2-34.3 17.65-34.3ZM42.02 0.2Q36.8 0.2 33.57-2.8 30.35-5.8 30.35-11.98 30.35-18.15 33.77-21.68 37.2-25.2 42.4-25.2 47.6-25.2 50.85-22.2 54.1-19.2 54.1-13.03 54.1-6.85 50.67-3.33 47.25 0.2 42.02 0.2ZM42.35-24.3Q38.6-24.3 36.1-21.05 33.6-17.8 33.6-12.23 33.6-6.65 35.97-3.68 38.35-0.7 42.1-0.7 45.85-0.7 48.35-3.95 50.85-7.2 50.85-12.75 50.85-18.3 48.47-21.3 46.1-24.3 42.35-24.3ZM79-35.45L79-35.45 79-2.6Q79-1.05 79.8-1.05L79.8-1.05 82.8-0.9 82.75-0.15Q80.34 0.25 77.75 0.25L77.75 0.25Q77.19 0.2 76.57-0.3 75.94-0.8 75.84-1.6L75.84-1.6Q73 0.2 69.25 0.2L69.25 0.2Q65.59 0.2 62.49-1.85L62.49-1.85Q60.74-3 59.67-5.48 58.59-7.95 58.59-11.5L58.59-11.5Q58.59-18.05 61.95-21.5L61.95-21.5Q65.5-25.2 70.05-25.2L70.05-25.2Q72.84-25.2 75.75-23.75L75.75-23.75 75.75-35.7Q75.75-36.25 75.44-36.25L75.44-36.25 72.39-36.35 72.44-37.05Q75.59-37.5 76.77-37.5 77.94-37.5 78.47-36.85 79-36.2 79-35.45ZM69.89-0.7L69.89-0.7Q72.94-0.7 75.75-2.05L75.75-2.05 75.75-22.95Q73.55-24.3 71.39-24.3L71.39-24.3Q67.09-24.3 64.47-21 61.84-17.7 61.84-11.55L61.84-11.55Q61.84-0.7 69.89-0.7ZM90.79-11.5L90.79-11.5Q90.79-0.7 99.19-0.7L99.19-0.7Q101.39-0.7 103.89-1.18 106.39-1.65 107.09-2.05L107.09-2.05 107.44-1.55Q106.29-0.8 103.67-0.3 101.04 0.2 98.87 0.2 96.69 0.2 94.97-0.25 93.24-0.7 91.44-1.85 89.64-3 88.59-5.45 87.54-7.9 87.54-11.45L87.54-11.45Q87.54-18.05 90.94-21.55L90.94-21.55Q94.49-25.2 99.19-25.2 103.89-25.2 106.37-22.6 108.84-20 108.84-15.3L108.84-15.3Q108.84-14.3 108.69-13.15L108.69-13.15 90.84-13.15Q90.79-12.6 90.79-11.5ZM105.89-15.65L105.89-15.65Q105.89-19.4 104.24-21.78 102.59-24.15 99.74-24.15L99.74-24.15Q96.04-24.15 93.49-20.9L93.49-20.9Q91.44-18.35 90.94-14.1L90.94-14.1 105.84-14.1Q105.89-14.65 105.89-15.65Z" fill="#1678e9" data-fill-palette-color="primary"></path><path d="M124.54-34.95L134.59-35Q134.59-34.95 134.64-34.25L134.64-34.25 130.74-33.9 139.04-1.3 148.34-35 149.09-35 148.94-34.6 149.14-35 157.94-1.2 166.74-33.25Q166.74-33.75 166.29-33.8L166.29-33.8 161.59-34.2 161.54-34.95 171.34-35Q171.34-34.95 171.39-34.25L171.39-34.25 168.14-33.95 158.24 0 155.19 0 147.64-29.85 139.39 0 136.29 0 127.69-33.55Q127.54-33.9 127.19-33.95L127.19-33.95 124.59-34.2 124.54-34.95ZM190.24-1.9L190.24-1.9 190.09-1.9Q185.59 0.2 181.34 0.2L181.34 0.2Q174.69 0.2 174.29-5.05L174.29-5.05Q174.24-5.4 174.24-5.7L174.24-5.7Q174.24-9.55 179.29-10.85L179.29-10.85Q182.29-11.5 190.09-12.4L190.09-12.4 190.09-16.8Q190.09-18.9 189.59-20.4 189.09-21.9 188.49-22.63 187.89-23.35 186.94-23.75L186.94-23.75Q185.74-24.25 184.26-24.25 182.79-24.25 180.89-23.5L180.89-23.5Q178.14-22.35 175.99-20.6L175.99-20.6 175.79-16.7 174.84-16.45 174.84-22.5 175.34-22.7Q179.24-24.4 181.29-24.75 183.34-25.1 184.29-25.13 185.24-25.15 186.11-25.1 186.99-25.05 188.39-24.65 189.79-24.25 190.81-23.53 191.84-22.8 192.59-21.35 193.34-19.9 193.34-17.9L193.34-17.9 193.34-2.6Q193.34-1.05 194.14-1.05L194.14-1.05 197.19-0.9 197.14-0.15Q194.34 0.25 192.14 0.25L192.14 0.25Q191.54 0.2 190.89-0.38 190.24-0.95 190.24-1.9ZM182.24-0.6L182.24-0.6Q185.94-0.6 190.09-3.2L190.09-3.2 190.09-11.45Q182.59-11.2 180.66-10.58 178.74-9.95 178.01-8.63 177.29-7.3 177.29-6L177.29-6Q177.29-5.75 177.29-5.5L177.29-5.5Q177.44-2.9 178.84-1.75 180.24-0.6 182.24-0.6ZM212.58-0.95L212.58-0.95 214.53-1.05 214.68-0.55Q214.63-0.55 213.98-0.4L213.98-0.4Q212.48-0.05 210.63-0.05L210.63-0.05Q208.93-0.15 207.53-0.63 206.13-1.1 204.93-2.63 203.73-4.15 203.73-6.55L203.73-6.55 203.73-24.1 201.18-24.1 201.58-24.5 203.78-24.95 204.18-29.75 206.98-30 206.98-25 213.03-25 213.03-24.1 206.98-24.1 206.98-7.4Q206.98-3.6 208.58-2.27 210.18-0.95 212.58-0.95ZM231.68-24.3L231.68-24.3Q227.43-24.3 224.81-20.98 222.18-17.65 222.18-11.55L222.18-11.55Q222.18-0.7 230.43-0.7L230.43-0.7Q233.68-0.7 235.98-1.33 238.28-1.95 238.48-2.1L238.48-2.1 238.83-1.55Q237.68-0.8 235.03-0.3 232.38 0.2 230.23 0.2 228.08 0.2 226.33-0.25 224.58-0.7 222.81-1.85 221.03-3 219.98-5.48 218.93-7.95 218.93-11.5L218.93-11.5Q218.93-18.05 222.28-21.4L222.28-21.4Q226.03-25.25 231.73-25.25L231.73-25.25Q233.53-25.25 235.56-24.78 237.58-24.3 238.68-23.3L238.68-23.3 238.68-16.75 237.73-16.4 237.48-21.65Q236.38-22.8 234.81-23.55 233.23-24.3 231.68-24.3ZM250.13-35.45L250.13-35.45 250.13-21.9Q256.68-26.4 261.98-24.7L261.98-24.7Q263.18-24.35 264.05-23.68 264.93-23 265.58-21.65 266.23-20.3 266.23-18.4L266.23-18.4 266.23-1 269.98-0.75Q269.98-0.7 269.93 0L269.93 0 259.93 0.05Q259.93-0.4 259.98-0.65L259.98-0.65 262.58-1Q262.88-1 262.98-1.45L262.98-1.45 262.98-17.1Q262.98-19.05 262.45-20.48 261.93-21.9 261.23-22.55 260.53-23.2 259.58-23.55L259.58-23.55Q258.28-24.05 257.28-23.95L257.28-23.95Q254.03-23.85 250.13-21.3L250.13-21.3 250.13-1 253.88-0.75Q253.88-0.7 253.83 0L253.83 0 243.83 0.05Q243.83-0.4 243.88-0.65L243.88-0.65 246.48-1Q246.88-1.05 246.88-1.7L246.88-1.7 246.88-35.7Q246.88-36.25 246.58-36.25L246.58-36.25 243.58-36.35 243.63-37.05Q246.33-37.5 247.73-37.5 249.13-37.5 249.63-36.85 250.13-36.2 250.13-35.45Z" fill="#89939e" data-fill-palette-color="secondary"></path></g></svg></g></svg></g></svg></g></svg></g><g><svg viewBox="0 0 91.77033584834807 79.97858976744186" height="79.97858976744186" width="91.77033584834807"><g><svg xmlns="http://www.w3.org/2000/svg" xmlns:xlink="http://www.w3.org/1999/xlink" version="1.0" x="0" y="0" viewBox="1.118 4.1185758 47.921 41.76353899999999" enable-background="new 0 0 50 50" xml:space="preserve" height="79.97858976744186" width="91.77033584834807" class="icon-icon-0" data-fill-palette-color="accent" id="icon-0"><g fill="#6f8eea" data-fill-palette-color="accent"><g fill="#6f8eea" data-fill-palette-color="accent"><polygon fill="#6f8eea" points="10.821,24.951 21,32.193 21,39.035 1.118,24.891 21,11.118 21,17.9   " data-fill-palette-color="accent"></polygon></g><g fill="#6f8eea" data-fill-palette-color="accent"><polygon fill="#6f8eea" points="49.039,25.277 35.815,16.063 34.219,21.712 39.475,25.338 31.411,30.97 29,38.79 29,39.424   " data-fill-palette-color="accent"></polygon></g><rect x="25.577" y="3.983" transform="matrix(0.9606 0.278 -0.278 0.9606 8.0575 -6.8179)" fill="#6f8eea" width="4.981" height="42.035" data-fill-palette-color="accent"></rect></g></svg></g></svg></g></svg></g><defs></defs></svg><rect width="395.52" height="63.145978355846886" fill="none" stroke="none" visibility="hidden"></rect></g></svg></g></svg>